<svg width="54" height="64" viewBox="0 0 54 64" fill="none" xmlns="http://www.w3.org/2000/svg">
<path fill-rule="evenodd" clip-rule="evenodd" d="M27.0002 7.33329C21.4773 7.33329 17.0002 11.8104 17.0002 17.3333C17.0002 22.8561 21.4773 27.3333 27.0002 27.3333C32.523 27.3333 37.0002 22.8561 37.0002 17.3333C37.0002 11.8104 32.523 7.33329 27.0002 7.33329ZM10.3335 17.3333C10.3335 8.12855 17.7954 0.666626 27.0002 0.666626C36.2049 0.666626 43.6668 8.12855 43.6668 17.3333C43.6668 26.538 36.2049 34 27.0002 34C17.7954 34 10.3335 26.538 10.3335 17.3333ZM11.8538 46.4214C8.33963 47.9819 7.00016 49.9527 7.00016 52.3333C7.00016 53.0788 7.13269 53.5007 7.32442 53.8065C7.51627 54.1125 7.97397 54.6308 9.20746 55.1889C11.8439 56.3816 17.0538 57.3333 27.0002 57.3333C36.9465 57.3333 42.1564 56.3816 44.7929 55.1889C46.0264 54.6308 46.484 54.1125 46.6759 53.8065C46.8676 53.5007 47.0002 53.0788 47.0002 52.3333C47.0002 49.9527 45.6607 47.9819 42.1465 46.4214C38.5383 44.8192 33.2407 44 27.0002 44C20.7596 44 15.4621 44.8192 11.8538 46.4214ZM9.14821 40.3285C13.985 38.1807 20.3541 37.3333 27.0002 37.3333C33.6463 37.3333 40.0154 38.1807 44.8521 40.3285C49.783 42.518 53.6668 46.3806 53.6668 52.3333C53.6668 53.889 53.3827 55.6594 52.3244 57.3475C51.2663 59.0354 49.6406 60.3128 47.5408 61.2628C43.5106 63.0862 37.0538 64 27.0002 64C16.9465 64 10.4898 63.0862 6.45953 61.2628C4.35969 60.3128 2.73405 59.0354 1.6759 57.3475C0.617632 55.6594 0.333496 53.889 0.333496 52.3333C0.333496 46.3806 4.21737 42.518 9.14821 40.3285Z" fill="#A3A6AC" fill-opacity="0.48"/>
<path d="M7.00016 52.3333C7.00016 49.9527 8.33963 47.9819 11.8538 46.4214C15.4621 44.8192 20.7596 44 27.0002 44C33.2407 44 38.5383 44.8192 42.1465 46.4214C45.6607 47.9819 47.0002 49.9527 47.0002 52.3333C47.0002 53.0788 46.8676 53.5007 46.6759 53.8065C46.484 54.1125 46.0264 54.6308 44.7929 55.1889C42.1564 56.3816 36.9465 57.3333 27.0002 57.3333C17.0538 57.3333 11.8439 56.3816 9.20746 55.1889C7.97397 54.6308 7.51627 54.1125 7.32442 53.8065C7.13269 53.5007 7.00016 53.0788 7.00016 52.3333Z" fill="#A3A6AC" fill-opacity="0.48"/>
<path d="M17.0002 17.3333C17.0002 11.8104 21.4773 7.33329 27.0002 7.33329C32.523 7.33329 37.0002 11.8104 37.0002 17.3333C37.0002 22.8561 32.523 27.3333 27.0002 27.3333C21.4773 27.3333 17.0002 22.8561 17.0002 17.3333Z" fill="#A3A6AC" fill-opacity="0.48"/>
</svg>
