<svg width="13" height="13" viewBox="0 0 13 13" fill="none" xmlns="http://www.w3.org/2000/svg">
<path fill-rule="evenodd" clip-rule="evenodd" d="M5.85707 0.535706C2.91813 0.535706 0.535645 2.91819 0.535645 5.85713C0.535645 8.79608 2.91813 11.1786 5.85707 11.1786C7.05607 11.1786 8.16245 10.782 9.05223 10.1129L11.041 12.1017C11.3339 12.3946 11.8088 12.3946 12.1017 12.1017C12.3946 11.8088 12.3946 11.334 12.1017 11.0411L10.1129 9.05228C10.782 8.16251 11.1785 7.05613 11.1785 5.85713C11.1785 2.91819 8.79602 0.535706 5.85707 0.535706ZM2.03564 5.85713C2.03564 3.74662 3.74656 2.03571 5.85707 2.03571C7.96759 2.03571 9.6785 3.74662 9.6785 5.85713C9.6785 7.96765 7.96759 9.67856 5.85707 9.67856C3.74656 9.67856 2.03564 7.96765 2.03564 5.85713Z" fill="#A3A6AC"/>
</svg>
